<svg width="38" height="73" viewBox="0 0 38 73" fill="none" xmlns="http://www.w3.org/2000/svg">
<g clip-path="url(#clip0_410_6953)">
<path d="M26.5787 14.75H11.4212C11.2367 14.75 11.0586 14.8181 10.921 14.9412C10.7835 15.0642 10.6962 15.2337 10.6758 15.4172L9.34248 27.4172C9.33083 27.522 9.34143 27.6281 9.37357 27.7286C9.40572 27.829 9.4587 27.9216 9.52904 28.0002C9.59939 28.0788 9.68553 28.1417 9.78182 28.1847C9.87812 28.2278 9.98241 28.25 10.0879 28.25H27.912C28.0175 28.25 28.1218 28.2278 28.2181 28.1847C28.3144 28.1417 28.4005 28.0788 28.4708 28.0002C28.5412 27.9216 28.5942 27.829 28.6263 27.7286C28.6585 27.6281 28.6691 27.522 28.6574 27.4172L27.3241 15.4172C27.3037 15.2337 27.2164 15.0642 27.0789 14.9412C26.9413 14.8181 26.7632 14.75 26.5787 14.75Z" stroke="#13101E" stroke-width="2" stroke-linecap="round" stroke-linejoin="round"/>
<path d="M15.25 13.75C15.25 12.7554 15.6451 11.8016 16.3483 11.0983C17.0516 10.3951 18.0054 10 19 10C19.9946 10 20.9484 10.3951 21.6517 11.0983C22.3549 11.8016 22.75 12.7554 22.75 13.75" stroke="#13101E" stroke-width="2" stroke-linecap="round" stroke-linejoin="round"/>
</g>
<g clip-path="url(#clip1_410_6953)">
<path d="M26.5787 49.75H11.4212C11.2367 49.75 11.0586 49.8181 10.921 49.9412C10.7835 50.0642 10.6962 50.2337 10.6758 50.4172L9.34248 62.4172C9.33083 62.522 9.34143 62.6281 9.37357 62.7286C9.40572 62.829 9.4587 62.9216 9.52904 63.0002C9.59939 63.0788 9.68553 63.1417 9.78182 63.1847C9.87812 63.2278 9.98241 63.25 10.0879 63.25H27.912C28.0175 63.25 28.1218 63.2278 28.2181 63.1847C28.3144 63.1417 28.4005 63.0788 28.4708 63.0002C28.5412 62.9216 28.5942 62.829 28.6263 62.7286C28.6585 62.6281 28.6691 62.522 28.6574 62.4172L27.3241 50.4172C27.3037 50.2337 27.2164 50.0642 27.0788 49.9412C26.9413 49.8181 26.7632 49.75 26.5787 49.75Z" fill="#17494D"/>
<path d="M15.25 52.75V49.75C15.25 48.7554 15.6451 47.8016 16.3483 47.0983C17.0516 46.3951 18.0054 46 19 46C19.9946 46 20.9484 46.3951 21.6517 47.0983C22.3549 47.8016 22.75 48.7554 22.75 49.75V52.75" stroke="#17494D" stroke-width="2" stroke-linecap="round" stroke-linejoin="round"/>
</g>
<rect x="0.5" y="0.5" width="37" height="72" rx="4.5" stroke="#7B61FF" stroke-dasharray="10 5"/>
<defs>
<clipPath id="clip0_410_6953">
<rect width="24" height="24" fill="white" transform="translate(7 8)"/>
</clipPath>
<clipPath id="clip1_410_6953">
<rect width="24" height="24" fill="white" transform="translate(7 43)"/>
</clipPath>
</defs>
</svg>
