<svg width="58" height="58" viewBox="0 0 58 58" fill="none" xmlns="http://www.w3.org/2000/svg">
<g filter="url(#filter0_d_41_1338)">
<path fill-rule="evenodd" clip-rule="evenodd" d="M18.1995 23.0352C17.7373 23.0352 17.341 23.3654 17.2575 23.82L14.0667 41.1922C13.7425 42.9574 15.098 44.5845 16.8927 44.5845H39.3924C41.164 44.5845 42.5136 42.9968 42.2281 41.2483L39.3857 23.8387C39.3101 23.3754 38.9099 23.0352 38.4405 23.0352H18.1995ZM15.3736 23.4739C15.6241 22.1101 16.8129 21.1198 18.1995 21.1198H38.4405C39.8486 21.1198 41.0493 22.1403 41.2762 23.53L44.1186 40.9397C44.5943 43.8538 42.3451 46.5 39.3924 46.5H16.8927C13.9015 46.5 11.6424 43.7882 12.1827 40.8462L15.3736 23.4739Z" fill="#17494D"/>
<path fill-rule="evenodd" clip-rule="evenodd" d="M28.5755 14.4155C25.0298 14.4155 21.9431 17.0178 21.1251 20.6408H36.0259C35.2079 17.0178 32.1212 14.4155 28.5755 14.4155ZM37.9794 20.6408C37.1276 16.003 33.2412 12.5 28.5755 12.5C23.9098 12.5 20.0234 16.003 19.1716 20.6408C19.0577 21.2609 18.998 21.9013 18.998 22.5563H38.153C38.153 21.9013 38.0933 21.2609 37.9794 20.6408Z" fill="#17494D"/>
<path fill-rule="evenodd" clip-rule="evenodd" d="M19.4883 27.1994C19.5602 26.7322 19.9622 26.3873 20.4349 26.3873H33.8433C34.3723 26.3873 34.8011 26.8161 34.8011 27.3451C34.8011 27.874 34.3723 28.3028 33.8433 28.3028H21.2566L19.466 39.9414C19.3856 40.4642 18.8966 40.8228 18.3738 40.7424C17.851 40.662 17.4924 40.1729 17.5728 39.6501L19.4883 27.1994Z" fill="#17494D"/>
<path fill-rule="evenodd" clip-rule="evenodd" d="M29.5332 40.2746C29.5332 39.7457 29.962 39.3169 30.4909 39.3169H37.1952C37.7241 39.3169 38.1529 39.7457 38.1529 40.2746C38.1529 40.8036 37.7241 41.2324 37.1952 41.2324H30.4909C29.962 41.2324 29.5332 40.8036 29.5332 40.2746Z" fill="#17494D"/>
<path d="M16.5 23.5L13 42.5L16 45.5L42 45L43 41.5L40.5 24L38.5 22H18.5L16.5 23.5Z" fill="url(#paint0_linear_41_1338)"/>
<path fill-rule="evenodd" clip-rule="evenodd" d="M18.1995 23.0352C17.7373 23.0352 17.341 23.3654 17.2575 23.82L14.0667 41.1922C13.7425 42.9574 15.098 44.5845 16.8927 44.5845H39.3924C41.164 44.5845 42.5136 42.9968 42.2281 41.2483L39.3857 23.8387C39.3101 23.3754 38.9099 23.0352 38.4405 23.0352H18.1995ZM15.3736 23.4739C15.6241 22.1101 16.8129 21.1198 18.1995 21.1198H38.4405C39.8486 21.1198 41.0493 22.1403 41.2762 23.53L44.1186 40.9397C44.5943 43.8538 42.3451 46.5 39.3924 46.5H16.8927C13.9015 46.5 11.6424 43.7882 12.1827 40.8462L15.3736 23.4739Z" fill="#17494D"/>
<path fill-rule="evenodd" clip-rule="evenodd" d="M28.5755 14.4155C25.0298 14.4155 21.9431 17.0178 21.1251 20.6408H36.0259C35.2079 17.0178 32.1212 14.4155 28.5755 14.4155ZM37.9794 20.6408C37.1276 16.003 33.2412 12.5 28.5755 12.5C23.9098 12.5 20.0234 16.003 19.1716 20.6408C19.0577 21.2609 18.998 21.9013 18.998 22.5563H38.153C38.153 21.9013 38.0933 21.2609 37.9794 20.6408Z" fill="#17494D"/>
<path fill-rule="evenodd" clip-rule="evenodd" d="M19.4883 27.1994C19.5602 26.7322 19.9622 26.3873 20.4349 26.3873H33.8433C34.3723 26.3873 34.8011 26.8161 34.8011 27.3451C34.8011 27.874 34.3723 28.3028 33.8433 28.3028H21.2566L19.466 39.9414C19.3856 40.4642 18.8966 40.8228 18.3738 40.7424C17.851 40.662 17.4924 40.1729 17.5728 39.6501L19.4883 27.1994Z" fill="#17494D"/>
<path fill-rule="evenodd" clip-rule="evenodd" d="M29.5332 40.2746C29.5332 39.7457 29.962 39.3169 30.4909 39.3169H37.1952C37.7241 39.3169 38.1529 39.7457 38.1529 40.2746C38.1529 40.8036 37.7241 41.2324 37.1952 41.2324H30.4909C29.962 41.2324 29.5332 40.8036 29.5332 40.2746Z" fill="#17494D"/>
</g>
<defs>
<filter id="filter0_d_41_1338" x="-4" y="0" width="66" height="66" filterUnits="userSpaceOnUse" color-interpolation-filters="sRGB">
<feFlood flood-opacity="0" result="BackgroundImageFix"/>
<feColorMatrix in="SourceAlpha" type="matrix" values="0 0 0 0 0 0 0 0 0 0 0 0 0 0 0 0 0 0 127 0" result="hardAlpha"/>
<feOffset dy="4"/>
<feGaussianBlur stdDeviation="2"/>
<feComposite in2="hardAlpha" operator="out"/>
<feColorMatrix type="matrix" values="0 0 0 0 0 0 0 0 0 0 0 0 0 0 0 0 0 0 0.25 0"/>
<feBlend mode="normal" in2="BackgroundImageFix" result="effect1_dropShadow_41_1338"/>
<feBlend mode="normal" in="SourceGraphic" in2="effect1_dropShadow_41_1338" result="shape"/>
</filter>
<linearGradient id="paint0_linear_41_1338" x1="27.1667" y1="19.3889" x2="29.8267" y2="45.3877" gradientUnits="userSpaceOnUse">
<stop stop-color="white" stop-opacity="0"/>
<stop offset="1" stop-color="#17494D" stop-opacity="0.57"/>
</linearGradient>
</defs>
</svg>
