<svg width="38" height="73" viewBox="0 0 38 73" fill="none" xmlns="http://www.w3.org/2000/svg">
<g clip-path="url(#clip0_410_6916)">
<path d="M21.2495 27.4993V22.9992C21.2495 22.8003 21.1704 22.6095 21.0298 22.4689C20.8891 22.3282 20.6984 22.2492 20.4995 22.2492H17.4995C17.3005 22.2492 17.1098 22.3282 16.9691 22.4689C16.8285 22.6095 16.7495 22.8003 16.7495 22.9992V27.4993C16.7495 27.6982 16.6704 27.8889 16.5298 28.0296C16.3892 28.1702 16.1984 28.2492 15.9995 28.2493L11.5001 28.2499C11.4016 28.2499 11.3041 28.2305 11.2131 28.1928C11.122 28.1551 11.0394 28.0999 10.9697 28.0302C10.9 27.9606 10.8448 27.8779 10.8071 27.7869C10.7694 27.6959 10.75 27.5984 10.75 27.4999V18.8317C10.75 18.7272 10.7718 18.6239 10.8141 18.5283C10.8564 18.4328 10.9181 18.3471 10.9954 18.2768L18.4949 11.4579C18.633 11.3324 18.8129 11.2628 18.9995 11.2628C19.186 11.2628 19.3659 11.3324 19.504 11.4579L27.0045 18.2768C27.0818 18.3471 27.1436 18.4328 27.1859 18.5283C27.2282 18.6239 27.25 18.7272 27.25 18.8317V27.4999C27.25 27.5984 27.2306 27.6959 27.1929 27.7869C27.1552 27.8779 27.1 27.9606 27.0303 28.0302C26.9606 28.0999 26.878 28.1551 26.7869 28.1928C26.6959 28.2305 26.5984 28.2499 26.4999 28.2499L21.9994 28.2493C21.8005 28.2493 21.6097 28.1702 21.4691 28.0296C21.3285 27.8889 21.2494 27.6982 21.2495 27.4993V27.4993Z" stroke="#13101E" stroke-width="2" stroke-linecap="round" stroke-linejoin="round"/>
</g>
<g clip-path="url(#clip1_410_6916)">
<path d="M21.2495 62.4993V57.9992C21.2495 57.8003 21.1704 57.6095 21.0298 57.4689C20.8891 57.3282 20.6984 57.2492 20.4995 57.2492H17.4995C17.3005 57.2492 17.1098 57.3282 16.9691 57.4689C16.8285 57.6095 16.7495 57.8003 16.7495 57.9992V62.4993C16.7495 62.6982 16.6704 62.8889 16.5298 63.0296C16.3892 63.1702 16.1984 63.2492 15.9995 63.2493L11.5001 63.2499C11.4016 63.2499 11.3041 63.2305 11.2131 63.1928C11.122 63.1551 11.0394 63.0999 10.9697 63.0302C10.9 62.9606 10.8448 62.8779 10.8071 62.7869C10.7694 62.6959 10.75 62.5984 10.75 62.4999V53.8317C10.75 53.7272 10.7718 53.6239 10.8141 53.5283C10.8564 53.4328 10.9181 53.3471 10.9954 53.2768L18.4949 46.4579C18.633 46.3324 18.8129 46.2628 18.9995 46.2628C19.186 46.2628 19.3659 46.3324 19.504 46.4579L27.0045 53.2768C27.0818 53.3471 27.1436 53.4328 27.1859 53.5283C27.2282 53.6239 27.25 53.7272 27.25 53.8317V62.4999C27.25 62.5984 27.2306 62.6959 27.1929 62.7869C27.1552 62.8779 27.1 62.9606 27.0303 63.0302C26.9606 63.0999 26.878 63.1551 26.7869 63.1928C26.6959 63.2305 26.5984 63.2499 26.4999 63.2499L21.9994 63.2493C21.8005 63.2493 21.6097 63.1702 21.4691 63.0296C21.3285 62.8889 21.2494 62.6982 21.2495 62.4993Z" fill="#17494D"/>
</g>
<rect x="0.5" y="0.5" width="37" height="72" rx="4.5" stroke="#7B61FF" stroke-dasharray="10 5"/>
<defs>
<clipPath id="clip0_410_6916">
<rect width="24" height="24" fill="white" transform="translate(7 8)"/>
</clipPath>
<clipPath id="clip1_410_6916">
<rect width="24" height="24" fill="white" transform="translate(7 43)"/>
</clipPath>
</defs>
</svg>
