<svg width="58" height="58" viewBox="0 0 58 58" fill="none" xmlns="http://www.w3.org/2000/svg">
<g filter="url(#filter0_d_41_909)">
<path fill-rule="evenodd" clip-rule="evenodd" d="M28.1 46.2001C34.0647 46.2001 38.9 41.3647 38.9 35.4C38.9 29.4354 34.0647 24.6 28.1 24.6C22.1353 24.6 17.3 29.4354 17.3 35.4C17.3 41.3647 22.1353 46.2001 28.1 46.2001ZM28.1 48C35.0588 48 40.7 42.3588 40.7 35.4C40.7 28.4413 35.0588 22.8 28.1 22.8C21.1412 22.8 15.5 28.4413 15.5 35.4C15.5 42.3588 21.1412 48 28.1 48Z" fill="#17494D"/>
<path fill-rule="evenodd" clip-rule="evenodd" d="M23.5245 12.2434C23.6913 12.087 23.9113 12 24.14 12H31.16C31.3887 12 31.6087 12.087 31.7755 12.2434L38.0155 18.0934C38.3776 18.4328 38.3966 19.0013 38.058 19.3641L32.5979 25.2141C32.3449 25.4852 31.9515 25.5733 31.607 25.4361C31.6069 25.4361 31.6068 25.4361 31.6067 25.436C31.6067 25.436 31.6067 25.436 31.6066 25.436C31.6065 25.4359 31.6064 25.4359 31.6063 25.4359C31.6062 25.4358 31.6062 25.4358 31.6061 25.4358C31.606 25.4357 31.6059 25.4357 31.6057 25.4356L31.6056 25.4356L31.5944 25.4313C31.5834 25.427 31.5653 25.4201 31.5405 25.411C31.4908 25.3927 31.4144 25.3653 31.3141 25.3319C31.1135 25.265 30.8189 25.1743 30.4542 25.0831C29.721 24.8998 28.7248 24.72 27.65 24.72C26.5819 24.72 25.8003 24.8977 25.3021 25.0638C25.0524 25.1471 24.8723 25.2279 24.7619 25.2831C24.7066 25.3107 24.6688 25.332 24.6483 25.3439C24.6392 25.3492 24.6335 25.3527 24.6313 25.354C24.2844 25.5802 23.8272 25.5404 23.5245 25.2566L17.2845 19.4066C17.103 19.2364 17 18.9988 17 18.75C17 18.5012 17.103 18.2636 17.2845 18.0934L23.5245 12.2434ZM31.6807 23.5588C31.4664 23.4915 31.1996 23.4141 30.8908 23.3369C30.064 23.1302 28.9152 22.92 27.65 22.92C26.3781 22.92 25.4047 23.1323 24.7329 23.3562C24.5709 23.4102 24.4269 23.4647 24.3006 23.5169L19.2159 18.75L24.4959 13.8H30.8041L36.1293 18.7924L31.6807 23.5588Z" fill="#17494D"/>
<path fill-rule="evenodd" clip-rule="evenodd" d="M37.3999 19.65H17.8999V17.85H37.3999V19.65Z" fill="#17494D"/>
<path fill-rule="evenodd" clip-rule="evenodd" d="M21.7341 39.6127C22.1413 39.3277 22.7024 39.4267 22.9875 39.8339C23.8944 41.1296 26.6645 43.3482 30.454 41.7693C30.9128 41.5781 31.4398 41.7951 31.6309 42.2539C31.8221 42.7127 31.6052 43.2396 31.1463 43.4308C26.2959 45.4518 22.7059 42.5705 21.5129 40.8661C21.2278 40.4589 21.3269 39.8978 21.7341 39.6127Z" fill="#17494D"/>
<path fill-rule="evenodd" clip-rule="evenodd" d="M16.3623 36C16.3623 29.5728 21.5726 24.3625 27.9998 24.3625C34.427 24.3625 39.6373 29.5728 39.6373 36C39.6373 42.4273 34.427 47.6375 27.9998 47.6375C21.5726 47.6375 16.3623 42.4273 16.3623 36Z" fill="url(#paint0_linear_41_909)"/>
<path fill-rule="evenodd" clip-rule="evenodd" d="M28.1 46.2001C34.0647 46.2001 38.9 41.3647 38.9 35.4C38.9 29.4354 34.0647 24.6 28.1 24.6C22.1353 24.6 17.3 29.4354 17.3 35.4C17.3 41.3647 22.1353 46.2001 28.1 46.2001ZM28.1 48C35.0588 48 40.7 42.3588 40.7 35.4C40.7 28.4413 35.0588 22.8 28.1 22.8C21.1412 22.8 15.5 28.4413 15.5 35.4C15.5 42.3588 21.1412 48 28.1 48Z" fill="#17494D"/>
<path fill-rule="evenodd" clip-rule="evenodd" d="M23.5245 12.2434C23.6913 12.087 23.9113 12 24.14 12H31.16C31.3887 12 31.6087 12.087 31.7755 12.2434L38.0155 18.0934C38.3776 18.4328 38.3966 19.0013 38.058 19.3641L32.5979 25.2141C32.3449 25.4852 31.9515 25.5733 31.607 25.4361C31.6069 25.4361 31.6068 25.4361 31.6067 25.436C31.6067 25.436 31.6067 25.436 31.6066 25.436C31.6065 25.4359 31.6064 25.4359 31.6063 25.4359C31.6062 25.4358 31.6062 25.4358 31.6061 25.4358C31.606 25.4357 31.6059 25.4357 31.6057 25.4356L31.6056 25.4356L31.5944 25.4313C31.5834 25.427 31.5653 25.4201 31.5405 25.411C31.4908 25.3927 31.4144 25.3653 31.3141 25.3319C31.1135 25.265 30.8189 25.1743 30.4542 25.0831C29.721 24.8998 28.7248 24.72 27.65 24.72C26.5819 24.72 25.8003 24.8977 25.3021 25.0638C25.0524 25.1471 24.8723 25.2279 24.7619 25.2831C24.7066 25.3107 24.6688 25.332 24.6483 25.3439C24.6392 25.3492 24.6335 25.3527 24.6313 25.354C24.2844 25.5802 23.8272 25.5404 23.5245 25.2566L17.2845 19.4066C17.103 19.2364 17 18.9988 17 18.75C17 18.5012 17.103 18.2636 17.2845 18.0934L23.5245 12.2434ZM31.6807 23.5588C31.4664 23.4915 31.1996 23.4141 30.8908 23.3369C30.064 23.1302 28.9152 22.92 27.65 22.92C26.3781 22.92 25.4047 23.1323 24.7329 23.3562C24.5709 23.4102 24.4269 23.4647 24.3006 23.5169L19.2159 18.75L24.4959 13.8H30.8041L36.1293 18.7924L31.6807 23.5588Z" fill="#17494D"/>
<path fill-rule="evenodd" clip-rule="evenodd" d="M37.3999 19.65H17.8999V17.85H37.3999V19.65Z" fill="#17494D"/>
<path fill-rule="evenodd" clip-rule="evenodd" d="M21.7341 39.6127C22.1413 39.3277 22.7024 39.4267 22.9875 39.8339C23.8944 41.1296 26.6645 43.3482 30.454 41.7693C30.9128 41.5781 31.4398 41.7951 31.6309 42.2539C31.8221 42.7127 31.6052 43.2396 31.1463 43.4308C26.2959 45.4518 22.7059 42.5705 21.5129 40.8661C21.2278 40.4589 21.3269 39.8978 21.7341 39.6127Z" fill="#17494D"/>
</g>
<defs>
<filter id="filter0_d_41_909" x="-4" y="0" width="66" height="66" filterUnits="userSpaceOnUse" color-interpolation-filters="sRGB">
<feFlood flood-opacity="0" result="BackgroundImageFix"/>
<feColorMatrix in="SourceAlpha" type="matrix" values="0 0 0 0 0 0 0 0 0 0 0 0 0 0 0 0 0 0 127 0" result="hardAlpha"/>
<feOffset dy="4"/>
<feGaussianBlur stdDeviation="2"/>
<feComposite in2="hardAlpha" operator="out"/>
<feColorMatrix type="matrix" values="0 0 0 0 0 0 0 0 0 0 0 0 0 0 0 0 0 0 0.25 0"/>
<feBlend mode="normal" in2="BackgroundImageFix" result="effect1_dropShadow_41_909"/>
<feBlend mode="normal" in="SourceGraphic" in2="effect1_dropShadow_41_909" result="shape"/>
</filter>
<linearGradient id="paint0_linear_41_909" x1="27.3533" y1="21.7764" x2="30.6947" y2="47.3594" gradientUnits="userSpaceOnUse">
<stop stop-color="white" stop-opacity="0"/>
<stop offset="1" stop-color="#17494D" stop-opacity="0.57"/>
</linearGradient>
</defs>
</svg>
