<svg width="116" height="30" viewBox="0 0 116 30" fill="none" xmlns="http://www.w3.org/2000/svg">
<g filter="url(#filter0_dd_159_923)">
<path d="M14.6967 21.3567C13.2913 21.3567 11.9727 21.0994 10.7408 20.5848C9.52621 20.053 8.45914 19.324 7.53955 18.3977C6.63731 17.4542 5.92593 16.3563 5.40541 15.1041C4.90224 13.8519 4.65065 12.4967 4.65065 11.0386C4.65065 9.59766 4.90224 8.25965 5.40541 7.02456C5.92593 5.77232 6.63731 4.68304 7.53955 3.75673C8.45914 2.81326 9.52621 2.07563 10.7408 1.54386C11.9553 1.01209 13.274 0.746199 14.6967 0.746199C16.0327 0.746199 17.1779 0.917739 18.1322 1.26082C19.1038 1.6039 20.0755 2.16998 21.0471 2.95906C21.2553 3.1306 21.3941 3.29357 21.4635 3.44795C21.5329 3.60234 21.5676 3.79103 21.5676 4.01403C21.5676 4.33996 21.4462 4.61442 21.2033 4.83743C20.9777 5.04327 20.7001 5.16335 20.3704 5.19766C20.0408 5.21481 19.7198 5.10331 19.4075 4.86316C18.7655 4.31423 18.0975 3.89396 17.4034 3.60234C16.7268 3.31072 15.8245 3.16491 14.6967 3.16491C13.673 3.16491 12.7101 3.37076 11.8078 3.78246C10.9056 4.19415 10.1075 4.76023 9.41343 5.4807C8.73675 6.20117 8.20755 7.04172 7.82584 8.00234C7.44412 8.94581 7.25326 9.9579 7.25326 11.0386C7.25326 12.1365 7.44412 13.1657 7.82584 14.1263C8.20755 15.0698 8.73675 15.9018 9.41343 16.6222C10.1075 17.3427 10.9056 17.9088 11.8078 18.3205C12.7101 18.715 13.673 18.9123 14.6967 18.9123C15.5816 18.9123 16.4145 18.7665 17.1952 18.4749C17.9934 18.1661 18.7568 17.7458 19.4855 17.214C19.7978 16.991 20.1015 16.8967 20.3964 16.931C20.7088 16.9481 20.969 17.0682 21.1772 17.2912C21.3854 17.4971 21.4895 17.7887 21.4895 18.1661C21.4895 18.5263 21.3507 18.8437 21.0731 19.1181C19.1992 20.6105 17.0738 21.3567 14.6967 21.3567Z" fill="#17494D"/>
<path d="M35.8649 21.3567C34.338 21.3567 32.9413 21.108 31.6747 20.6105C30.4081 20.0959 29.315 19.384 28.3954 18.4749C27.4932 17.5485 26.7905 16.4593 26.2873 15.207C25.7841 13.9376 25.5325 12.5481 25.5325 11.0386C25.5325 9.52905 25.7841 8.14815 26.2873 6.89591C26.7905 5.64366 27.4932 4.56296 28.3954 3.6538C29.315 2.72748 30.4081 2.01559 31.6747 1.51813C32.9413 1.00351 34.338 0.746199 35.8649 0.746199C37.3918 0.746199 38.7798 1.00351 40.0291 1.51813C41.2957 2.01559 42.3888 2.72748 43.3084 3.6538C44.228 4.56296 44.9393 5.64366 45.4425 6.89591C45.9457 8.14815 46.1973 9.52905 46.1973 11.0386C46.1973 12.5481 45.9457 13.9376 45.4425 15.207C44.9393 16.4593 44.228 17.5485 43.3084 18.4749C42.3888 19.384 41.2957 20.0959 40.0291 20.6105C38.7798 21.108 37.3918 21.3567 35.8649 21.3567ZM35.8649 18.938C37.3744 18.938 38.7104 18.5949 39.8729 17.9088C41.0354 17.2055 41.9463 16.262 42.6057 15.0784C43.265 13.8776 43.5947 12.531 43.5947 11.0386C43.5947 9.5462 43.265 8.20819 42.6057 7.02456C41.9463 5.82378 41.0354 4.88031 39.8729 4.19415C38.7104 3.50799 37.3744 3.16491 35.8649 3.16491C34.3554 3.16491 33.0194 3.50799 31.8569 4.19415C30.6944 4.88031 29.7835 5.82378 29.1241 7.02456C28.4648 8.20819 28.1351 9.5462 28.1351 11.0386C28.1351 12.531 28.4648 13.8776 29.1241 15.0784C29.7835 16.262 30.6944 17.2055 31.8569 17.9088C33.0194 18.5949 34.3554 18.938 35.8649 18.938Z" fill="#17494D"/>
<path d="M52.4409 21.0994C52.0592 21.0994 51.7382 20.9708 51.4779 20.7135C51.2177 20.4561 51.0875 20.1388 51.0875 19.7614V2.34152C51.0875 1.94698 51.2177 1.62963 51.4779 1.38947C51.7382 1.13216 52.0592 1.00351 52.4409 1.00351H57.1256C58.4269 1.00351 59.5807 1.27797 60.5871 1.8269C61.5934 2.35867 62.3742 3.0963 62.9294 4.03977C63.502 4.98323 63.7883 6.08109 63.7883 7.33333C63.7883 8.56842 63.4759 9.6577 62.8513 10.6012C62.2267 11.5275 61.3765 12.2308 60.3008 12.7111L64.2828 19.0409C64.5951 19.5384 64.6385 20.0101 64.4129 20.4561C64.1873 20.885 63.7969 21.0994 63.2417 21.0994C62.7385 21.0994 62.3482 20.885 62.0705 20.4561L57.5941 13.3544C57.4379 13.3544 57.2817 13.3544 57.1256 13.3544H53.7942V19.7614C53.7942 20.1388 53.6641 20.4561 53.4039 20.7135C53.1609 20.9708 52.84 21.0994 52.4409 21.0994ZM53.7942 10.8842H57.1256C58.3054 10.8842 59.2771 10.5583 60.0405 9.90643C60.8039 9.23743 61.1857 8.37973 61.1857 7.33333C61.1857 6.20117 60.8039 5.27485 60.0405 4.55439C59.2771 3.83392 58.3054 3.47368 57.1256 3.47368H53.7942V10.8842Z" fill="#17494D"/>
<path d="M69.9782 21.0994C69.4924 21.0994 69.1193 20.8936 68.8591 20.4819C68.5988 20.0702 68.5728 19.6327 68.781 19.1696L76.0943 1.90409C76.3546 1.3037 76.7797 1.00351 77.3696 1.00351C77.9942 1.00351 78.4193 1.3037 78.6449 1.90409L85.9843 19.2211C86.1751 19.7014 86.1404 20.1388 85.8801 20.5333C85.6372 20.9107 85.2642 21.0994 84.761 21.0994C84.5008 21.0994 84.2492 21.0308 84.0063 20.8936C83.7807 20.7392 83.6159 20.5333 83.5118 20.276L82.0543 16.6737H72.7109L71.2275 20.276C71.106 20.5505 70.9238 20.7563 70.6809 20.8936C70.4554 21.0308 70.2211 21.0994 69.9782 21.0994ZM73.6219 14.4608H81.1434L77.4217 5.30058L73.6219 14.4608Z" fill="#17494D"/>
<path d="M90.49 8.18246C90.2124 8.18246 89.9955 8.06238 89.8394 7.82222C89.7006 7.56491 89.6919 7.29902 89.8134 7.02456C90.1257 6.32125 90.3165 5.74659 90.3859 5.30058C90.4553 4.85458 90.4553 4.46862 90.3859 4.14269C90.3339 3.81676 90.2645 3.50799 90.1777 3.21637C90.091 2.9076 90.0476 2.56452 90.0476 2.18713C90.0476 1.74113 90.2037 1.37232 90.5161 1.0807C90.8284 0.789083 91.2014 0.643275 91.6352 0.643275C92.173 0.643275 92.5895 0.866276 92.8844 1.31228C93.1794 1.75828 93.3269 2.31579 93.3269 2.98479C93.3269 3.4308 93.2315 3.94542 93.0406 4.52865C92.8497 5.11189 92.6068 5.68655 92.3119 6.25263C92.0342 6.80156 91.7306 7.26472 91.4009 7.64211C91.0713 8.00234 90.7676 8.18246 90.49 8.18246Z" fill="#17494D"/>
<path d="M99.2212 21.0994C98.8395 21.0994 98.5185 20.9708 98.2582 20.7135C98.0153 20.4561 97.8938 20.1388 97.8938 19.7614V2.34152C97.8938 1.96413 98.024 1.64678 98.2842 1.38947C98.5445 1.13216 98.8568 1.00351 99.2212 1.00351C99.6029 1.00351 99.9239 1.13216 100.184 1.38947C100.444 1.64678 100.575 1.96413 100.575 2.34152V18.4234H109.996C110.378 18.4234 110.699 18.552 110.959 18.8094C111.219 19.0667 111.349 19.384 111.349 19.7614C111.349 20.1388 111.219 20.4561 110.959 20.7135C110.699 20.9708 110.378 21.0994 109.996 21.0994H99.2212Z" fill="#17494D"/>
<path fill-rule="evenodd" clip-rule="evenodd" d="M10.4773 21.173C9.1885 20.6087 8.05304 19.8333 7.07519 18.8483L7.06667 18.8397C6.1072 17.8364 5.35318 16.6708 4.80359 15.3486L4.80068 15.3416C4.26473 14.0078 4 12.5713 4 11.0386C4 9.52212 4.2651 8.10178 4.80187 6.78423L4.80358 6.78004C5.35358 5.45689 6.10884 4.29822 7.07087 3.31052C8.04903 2.30697 9.18594 1.52108 10.4773 0.955681L10.7408 1.54386C9.52621 2.07563 8.45914 2.81326 7.53955 3.75673C6.63731 4.68304 5.92593 5.77232 5.40541 7.02456C4.90224 8.25965 4.65065 9.59766 4.65065 11.0386C4.65065 12.4967 4.90224 13.8519 5.40541 15.1041C5.92593 16.3563 6.63731 17.4542 7.53955 18.3977C8.45914 19.324 9.52621 20.053 10.7408 20.5848C11.9727 21.0994 13.2913 21.3567 14.6967 21.3567C17.0738 21.3567 19.1992 20.6105 21.0731 19.1181C21.3507 18.8437 21.4895 18.5263 21.4895 18.1661C21.4895 17.7887 21.3854 17.4971 21.1772 17.2912C20.969 17.0682 20.7088 16.9481 20.3964 16.931C20.1015 16.8967 19.7978 16.991 19.4855 17.214C18.7568 17.7458 17.9934 18.1661 17.1952 18.4749C16.4145 18.7665 15.5816 18.9123 14.6967 18.9123C13.673 18.9123 12.7101 18.715 11.8078 18.3205C10.9056 17.9088 10.1075 17.3427 9.41343 16.6222C8.73675 15.9018 8.20755 15.0698 7.82584 14.1263C7.44412 13.1657 7.25326 12.1365 7.25326 11.0386C7.25326 9.9579 7.44412 8.94581 7.82584 8.00234C8.20755 7.04172 8.73675 6.20117 9.41343 5.4807C10.1075 4.76023 10.9056 4.19415 11.8078 3.78246C12.7101 3.37076 13.673 3.16491 14.6967 3.16491C15.8245 3.16491 16.7268 3.31072 17.4034 3.60234C18.0975 3.89396 18.7655 4.31423 19.4075 4.86316C19.7198 5.10331 20.0408 5.21481 20.3704 5.19766C20.7001 5.16335 20.9777 5.04327 21.2033 4.83743C21.4462 4.61442 21.5676 4.33996 21.5676 4.01403C21.5676 3.79103 21.5329 3.60234 21.4635 3.44795C21.3941 3.29357 21.2553 3.1306 21.0471 2.95906C20.0755 2.16998 19.1038 1.6039 18.1322 1.26082C17.1779 0.917739 16.0327 0.746199 14.6967 0.746199C13.274 0.746199 11.9553 1.01209 10.7408 1.54386L10.4773 0.955681C11.7806 0.385045 13.1898 0.102924 14.6967 0.102924C16.0852 0.102924 17.3091 0.280712 18.3528 0.655641C19.4079 1.02847 20.4434 1.63629 21.4601 2.46199L21.4636 2.46487C21.7083 2.66644 21.9313 2.90457 22.0581 3.18669C22.1743 3.44515 22.2183 3.72845 22.2183 4.01403C22.2183 4.51996 22.0207 4.96486 21.646 5.30881L21.6446 5.31011C21.3077 5.61758 20.8958 5.78982 20.4385 5.8374L20.4216 5.83916L20.4046 5.84005C19.889 5.86687 19.4181 5.68628 19.008 5.37093L18.9946 5.36065L18.9818 5.34971C18.3847 4.8391 17.7735 4.45678 17.1489 4.19437L17.1434 4.19205C16.5804 3.94942 15.7776 3.80819 14.6967 3.80819C13.7643 3.80819 12.8946 3.99503 12.0805 4.36652C11.255 4.74321 10.5249 5.26034 9.88743 5.92139C9.27017 6.57936 8.78437 7.34936 8.43143 8.23755L8.42996 8.24125C8.0809 9.104 7.90392 10.0345 7.90392 11.0386C7.90392 12.0604 8.0811 13.0088 8.4307 13.8893C8.78312 14.7597 9.26878 15.5221 9.88741 16.1815C10.5237 16.8413 11.2522 17.3577 12.0757 17.7342C12.8906 18.0898 13.762 18.269 14.6967 18.269C15.5065 18.269 16.2598 18.1361 16.9617 17.8744C17.7025 17.5875 18.4148 17.1958 19.0991 16.6965L19.1046 16.6925C19.503 16.408 19.9596 16.2386 20.4521 16.2899C20.9173 16.3199 21.3271 16.5079 21.6467 16.8457C22.0031 17.2038 22.1402 17.6751 22.1402 18.1661C22.1402 18.711 21.9224 19.1882 21.5332 19.573L21.5085 19.5974L21.4813 19.6191C19.4933 21.2024 17.2243 22 14.6967 22C13.2088 22 11.8036 21.7271 10.4875 21.1773L10.4773 21.173ZM31.4274 21.2055C30.0855 20.6603 28.919 19.9022 27.9353 18.9297L27.9266 18.9211C26.963 17.9318 26.2155 16.7706 25.6826 15.4445L25.6815 15.4417C25.1457 14.0899 24.8819 12.6199 24.8819 11.0386C24.8819 9.45747 25.1456 7.9948 25.6826 6.65841C26.2159 5.33133 26.9646 4.17702 27.931 3.20329C28.9156 2.21141 30.0848 1.45091 31.4309 0.921696C32.7836 0.372694 34.2643 0.102924 35.8649 0.102924C37.4647 0.102924 38.9375 0.372444 40.2743 0.922266C41.6188 1.45107 42.7867 2.21057 43.7706 3.20104C44.7548 4.17468 45.5133 5.32967 46.0472 6.65841C46.5842 7.9948 46.8479 9.45747 46.8479 11.0386C46.8479 12.6199 46.5841 14.0899 46.0483 15.4417L46.0472 15.4445C45.5133 16.7732 44.7553 17.9357 43.7727 18.9254L43.7685 18.9297C42.7848 19.9022 41.6183 20.6603 40.2764 21.2055L40.2722 21.2072C38.936 21.7393 37.464 22 35.8649 22C34.2656 22 32.7862 21.7392 31.4345 21.2084L31.4274 21.2055ZM43.3084 3.6538C42.3888 2.72748 41.2957 2.01559 40.0291 1.51813C38.7798 1.00351 37.3918 0.746199 35.8649 0.746199C34.338 0.746199 32.9413 1.00351 31.6747 1.51813C30.4081 2.01559 29.315 2.72748 28.3954 3.6538C27.4932 4.56296 26.7905 5.64366 26.2873 6.89591C25.7841 8.14815 25.5325 9.52905 25.5325 11.0386C25.5325 12.5481 25.7841 13.9376 26.2873 15.207C26.7905 16.4593 27.4932 17.5485 28.3954 18.4749C29.315 19.384 30.4081 20.0959 31.6747 20.6105C32.9413 21.108 34.338 21.3567 35.8649 21.3567C37.3918 21.3567 38.7798 21.108 40.0291 20.6105C41.2957 20.0959 42.3888 19.384 43.3084 18.4749C44.228 17.5485 44.9393 16.4593 45.4425 15.207C45.9457 13.9376 46.1973 12.5481 46.1973 11.0386C46.1973 9.52905 45.9457 8.14815 45.4425 6.89591C44.9393 5.64366 44.228 4.56296 43.3084 3.6538ZM42.0357 7.33488L42.0338 7.33147C41.429 6.22994 40.5995 5.37218 39.5394 4.74648C38.489 4.12649 37.2708 3.80819 35.8649 3.80819C34.459 3.80819 33.2408 4.12649 32.1904 4.74648C31.1303 5.37218 30.3008 6.22994 29.696 7.33146L29.6941 7.33489C29.0931 8.4138 28.7858 9.64313 28.7858 11.0386C28.7858 12.4332 29.0927 13.6721 29.695 14.7698C30.2993 15.8539 31.1296 16.7139 32.1934 17.3582C33.2431 17.977 34.4603 18.2947 35.8649 18.2947C37.2695 18.2947 38.4867 17.977 39.5364 17.3582C40.6001 16.7139 41.4305 15.8539 42.0348 14.7698C42.6371 13.6721 42.944 12.4332 42.944 11.0386C42.944 9.64313 42.6367 8.4138 42.0357 7.33488ZM42.6057 15.0784C41.9463 16.262 41.0354 17.2055 39.8729 17.9088C38.7104 18.5949 37.3744 18.938 35.8649 18.938C34.3554 18.938 33.0194 18.5949 31.8569 17.9088C30.6944 17.2055 29.7835 16.262 29.1241 15.0784C28.4648 13.8776 28.1351 12.531 28.1351 11.0386C28.1351 9.5462 28.4648 8.20819 29.1241 7.02456C29.7835 5.82378 30.6944 4.88031 31.8569 4.19415C33.0194 3.50799 34.3554 3.16491 35.8649 3.16491C37.3744 3.16491 38.7104 3.50799 39.8729 4.19415C41.0354 4.88031 41.9463 5.82378 42.6057 7.02456C43.265 8.20819 43.5947 9.5462 43.5947 11.0386C43.5947 12.531 43.265 13.8776 42.6057 15.0784ZM62.0705 20.4561L57.5941 13.3544H53.7942V19.7614C53.7942 20.1388 53.6641 20.4561 53.4039 20.7135C53.1609 20.9708 52.84 21.0994 52.4409 21.0994C52.0592 21.0994 51.7382 20.9708 51.4779 20.7135C51.2177 20.4561 51.0875 20.1388 51.0875 19.7614V2.34152C51.0875 1.94698 51.2177 1.62963 51.4779 1.38947C51.7382 1.13216 52.0592 1.00351 52.4409 1.00351H57.1256C58.4269 1.00351 59.5807 1.27797 60.5871 1.8269C61.5934 2.35867 62.3742 3.0963 62.9294 4.03977C63.502 4.98323 63.7883 6.08109 63.7883 7.33333C63.7883 8.56842 63.4759 9.6577 62.8513 10.6012C62.3438 11.3538 61.6875 11.9592 60.8822 12.4174C60.6963 12.5231 60.5025 12.621 60.3008 12.7111L64.2828 19.0409C64.5951 19.5384 64.6385 20.0101 64.4129 20.4561C64.1873 20.885 63.7969 21.0994 63.2417 21.0994C62.7385 21.0994 62.3482 20.885 62.0705 20.4561ZM61.226 12.9639L64.8353 18.7012C65.2424 19.3496 65.3405 20.0603 64.9949 20.7438L64.9902 20.753C64.8244 21.0683 64.5842 21.3267 64.2669 21.5009C63.9542 21.6727 63.6034 21.7427 63.2417 21.7427C62.5104 21.7427 61.9163 21.4112 61.5225 20.8029L61.5183 20.7964L57.2329 13.9977H54.4449V19.7614C54.4449 20.2987 54.2538 20.7789 53.8718 21.1605C53.4912 21.559 52.9924 21.7427 52.4409 21.7427C51.8937 21.7427 51.4051 21.5512 51.0178 21.1683C50.6306 20.7855 50.4369 20.3023 50.4369 19.7614V2.34152C50.4369 1.79621 50.6227 1.30309 51.0257 0.92687C51.4117 0.549175 51.8974 0.360234 52.4409 0.360234H57.1256C58.5204 0.360234 59.7837 0.654926 60.8975 1.26154C62.0034 1.84673 62.8723 2.66521 63.4895 3.71236C64.1293 4.76819 64.4389 5.98245 64.4389 7.33333C64.4389 8.68116 64.0962 9.89536 63.3957 10.9535L63.3927 10.958C62.8313 11.7906 62.106 12.4595 61.226 12.9639ZM54.4449 10.2409H57.1256C58.1754 10.2409 58.9868 9.9548 59.612 9.42232C60.2282 8.88096 60.535 8.20207 60.535 7.33333C60.535 6.36036 60.2144 5.60778 59.5912 5.0197C58.9635 4.42729 58.1595 4.11696 57.1256 4.11696H54.4449V10.2409ZM53.7942 10.8842V3.47368H57.1256C58.3054 3.47368 59.2771 3.83392 60.0405 4.55439C60.8039 5.27485 61.1857 6.20117 61.1857 7.33333C61.1857 8.37973 60.8039 9.23743 60.0405 9.90643C59.2771 10.5583 58.3054 10.8842 57.1256 10.8842H53.7942ZM76.0943 1.90409C76.3546 1.3037 76.7797 1.00351 77.3696 1.00351C77.9942 1.00351 78.4193 1.3037 78.6449 1.90409L85.9843 19.2211C86.1751 19.7014 86.1404 20.1388 85.8801 20.5333C85.6372 20.9107 85.2642 21.0994 84.761 21.0994C84.5008 21.0994 84.2492 21.0308 84.0063 20.8936C83.7807 20.7392 83.6159 20.5333 83.5118 20.276L82.0543 16.6737H72.7109L71.2275 20.276C71.106 20.5505 70.9238 20.7563 70.6809 20.8936C70.4554 21.0308 70.2211 21.0994 69.9782 21.0994C69.4924 21.0994 69.1193 20.8936 68.8591 20.4819C68.5988 20.0702 68.5728 19.6327 68.781 19.1696L76.0943 1.90409ZM68.1834 18.915L75.4963 1.65069C75.6611 1.27061 75.8982 0.939663 76.2302 0.7052C76.5671 0.467301 76.9573 0.360234 77.3696 0.360234C77.7904 0.360234 78.192 0.462895 78.5351 0.7052C78.8725 0.943484 79.1025 1.28084 79.2498 1.6669L86.59 18.9858C86.8489 19.6373 86.8128 20.2955 86.4268 20.8823C86.0493 21.4662 85.4557 21.7427 84.761 21.7427C84.3791 21.7427 84.0171 21.6406 83.6835 21.4521L83.659 21.4383L83.6359 21.4225C83.3029 21.1945 83.0581 20.8868 82.9077 20.5149L81.6138 17.317H73.1486L71.8238 20.5339C71.6526 20.9207 71.3828 21.2352 71.0131 21.4468C70.6969 21.6372 70.3489 21.7427 69.9782 21.7427C69.2651 21.7427 68.6849 21.4201 68.3073 20.8228C67.9279 20.2226 67.8953 19.5611 68.1834 18.915ZM81.1434 14.4608L77.4217 5.30058L73.6219 14.4608H81.1434ZM74.5919 13.8175H80.1809L77.4154 7.01099L74.5919 13.8175ZM89.2777 8.14805L89.2653 8.12494C89.0298 7.68849 89.0185 7.21579 89.2172 6.76672C89.5203 6.08423 89.686 5.56801 89.7428 5.20277C89.8043 4.80789 89.7979 4.50373 89.7492 4.27521L89.7458 4.25919L89.7432 4.24302C89.6952 3.94221 89.6317 3.66072 89.5535 3.39788L89.5507 3.38856C89.4458 3.01481 89.3969 2.61269 89.3969 2.18713C89.3969 1.57411 89.6197 1.03285 90.0693 0.613031C90.5037 0.207418 91.0371 0 91.6352 0C92.3932 0 93.0142 0.332983 93.429 0.960248C93.8089 1.53474 93.9775 2.22263 93.9775 2.98479C93.9775 3.51792 93.8642 4.10163 93.6597 4.72667C93.4579 5.34305 93.2019 5.94866 92.8923 6.54335C92.5962 7.12825 92.2647 7.63748 91.8934 8.06256L91.8836 8.0738C91.5193 8.47184 91.0516 8.82573 90.49 8.82573C89.9805 8.82573 89.5621 8.58542 89.2921 8.17008L89.2777 8.14805ZM92.3119 6.25263C92.6068 5.68655 92.8497 5.11189 93.0406 4.52865C93.2315 3.94542 93.3269 3.4308 93.3269 2.98479C93.3269 2.31579 93.1794 1.75828 92.8844 1.31228C92.5895 0.866276 92.173 0.643275 91.6352 0.643275C91.2014 0.643275 90.8284 0.789083 90.5161 1.0807C90.2037 1.37232 90.0476 1.74113 90.0476 2.18713C90.0476 2.56452 90.091 2.9076 90.1777 3.21637C90.2645 3.50799 90.3339 3.81676 90.3859 4.14269C90.4553 4.46862 90.4553 4.85458 90.3859 5.30058C90.3165 5.74659 90.1257 6.32125 89.8134 7.02456C89.6919 7.29902 89.7006 7.56491 89.8394 7.82222C89.9955 8.06238 90.2124 8.18246 90.49 8.18246C90.7676 8.18246 91.0713 8.00234 91.4009 7.64211C91.7306 7.26472 92.0342 6.80156 92.3119 6.25263ZM97.7902 21.1605L97.7826 21.1524C97.4186 20.7668 97.2432 20.2888 97.2432 19.7614V2.34152C97.2432 1.80059 97.4369 1.31746 97.8242 0.934609C98.205 0.558039 98.6823 0.360234 99.2212 0.360234C99.7683 0.360234 100.257 0.551756 100.644 0.934609C101.031 1.31746 101.225 1.80059 101.225 2.34152V17.7801H109.996C110.543 17.7801 111.032 17.9716 111.419 18.3545C111.806 18.7373 112 19.2205 112 19.7614C112 20.3023 111.806 20.7855 111.419 21.1683C111.032 21.5512 110.543 21.7427 109.996 21.7427H99.2212C98.674 21.7427 98.1854 21.5512 97.7981 21.1683L97.7902 21.1605ZM100.575 18.4234V2.34152C100.575 1.96413 100.444 1.64678 100.184 1.38947C99.9239 1.13216 99.6029 1.00351 99.2212 1.00351C98.8568 1.00351 98.5445 1.13216 98.2842 1.38947C98.024 1.64678 97.8938 1.96413 97.8938 2.34152V19.7614C97.8938 20.1388 98.0153 20.4561 98.2582 20.7135C98.5185 20.9708 98.8395 21.0994 99.2212 21.0994H109.996C110.378 21.0994 110.699 20.9708 110.959 20.7135C111.219 20.4561 111.349 20.1388 111.349 19.7614C111.349 19.384 111.219 19.0667 110.959 18.8094C110.699 18.552 110.378 18.4234 109.996 18.4234H100.575Z" fill="#17494D"/>
</g>
<defs>
<filter id="filter0_dd_159_923" x="0" y="0" width="116" height="30" filterUnits="userSpaceOnUse" color-interpolation-filters="sRGB">
<feFlood flood-opacity="0" result="BackgroundImageFix"/>
<feColorMatrix in="SourceAlpha" type="matrix" values="0 0 0 0 0 0 0 0 0 0 0 0 0 0 0 0 0 0 127 0" result="hardAlpha"/>
<feOffset dy="4"/>
<feGaussianBlur stdDeviation="2"/>
<feComposite in2="hardAlpha" operator="out"/>
<feColorMatrix type="matrix" values="0 0 0 0 0 0 0 0 0 0 0 0 0 0 0 0 0 0 0.25 0"/>
<feBlend mode="normal" in2="BackgroundImageFix" result="effect1_dropShadow_159_923"/>
<feColorMatrix in="SourceAlpha" type="matrix" values="0 0 0 0 0 0 0 0 0 0 0 0 0 0 0 0 0 0 127 0" result="hardAlpha"/>
<feOffset dy="4"/>
<feGaussianBlur stdDeviation="2"/>
<feComposite in2="hardAlpha" operator="out"/>
<feColorMatrix type="matrix" values="0 0 0 0 0 0 0 0 0 0 0 0 0 0 0 0 0 0 0.25 0"/>
<feBlend mode="normal" in2="effect1_dropShadow_159_923" result="effect2_dropShadow_159_923"/>
<feBlend mode="normal" in="SourceGraphic" in2="effect2_dropShadow_159_923" result="shape"/>
</filter>
</defs>
</svg>
