<svg width="58" height="58" viewBox="0 0 58 58" fill="none" xmlns="http://www.w3.org/2000/svg">
<g filter="url(#filter0_d_41_1444)">
<path fill-rule="evenodd" clip-rule="evenodd" d="M25.2415 14.5125C25.1859 14.5125 25.132 14.5321 25.0893 14.5677C25.0466 14.6034 25.0178 14.6529 25.0079 14.7077L24.0731 14.5382L25.0079 14.7077L23.9972 20.2822C23.9036 20.7985 23.4093 21.1411 22.893 21.0475C22.3767 20.9539 22.0341 20.4596 22.1277 19.9433L23.1383 14.3688C23.2277 13.876 23.4871 13.4303 23.8715 13.1093C24.2559 12.7884 24.7408 12.6125 25.2415 12.6125H32.7584C33.2592 12.6125 33.744 12.7884 34.1284 13.1093C34.5128 13.4303 34.7723 13.876 34.8616 14.3688L35.8722 19.9433C35.9658 20.4596 35.6232 20.954 35.1069 21.0476C34.5907 21.1412 34.0963 20.7985 34.0027 20.2823L32.9921 14.7077L33.9268 14.5382L32.9921 14.7077C32.9822 14.6529 32.9533 14.6034 32.9106 14.5677C32.8679 14.5321 32.814 14.5125 32.7584 14.5125H25.2415Z" fill="#17494D"/>
<path fill-rule="evenodd" clip-rule="evenodd" d="M32.7585 44.1002C32.8141 44.1002 32.868 44.0807 32.9107 44.045C32.9534 44.0094 32.9822 43.9599 32.9921 43.9051L33.9269 44.0746L32.9921 43.9051L34.0028 38.3306C34.0964 37.8143 34.5907 37.4717 35.107 37.5653C35.6233 37.6589 35.9659 38.1532 35.8723 38.6695L34.8617 44.244C34.7723 44.7368 34.5129 45.1825 34.1285 45.5035C33.7441 45.8244 33.2592 46.0002 32.7585 46.0002H25.2416C24.7408 46.0002 24.256 45.8244 23.8716 45.5035C23.4872 45.1825 23.2277 44.7368 23.1384 44.244L22.1278 38.6695C22.0342 38.1532 22.3768 37.6588 22.8931 37.5652C23.4093 37.4716 23.9037 37.8143 23.9973 38.3305L25.0079 43.9051L24.0732 44.0746L25.0079 43.9051C25.0178 43.9599 25.0467 44.0094 25.0894 44.045C25.1321 44.0807 25.186 44.1002 25.2416 44.1002H32.7585Z" fill="#17494D"/>
<path fill-rule="evenodd" clip-rule="evenodd" d="M28.9998 19.2625C23.6219 19.2625 19.2623 23.6222 19.2623 29C19.2623 34.3779 23.6219 38.7375 28.9998 38.7375C34.3777 38.7375 38.7373 34.3779 38.7373 29C38.7373 23.6222 34.3777 19.2625 28.9998 19.2625ZM17.3623 29C17.3623 22.5728 22.5726 17.3625 28.9998 17.3625C35.427 17.3625 40.6373 22.5728 40.6373 29C40.6373 35.4273 35.427 40.6375 28.9998 40.6375C22.5726 40.6375 17.3623 35.4273 17.3623 29Z" fill="#17494D"/>
<path fill-rule="evenodd" clip-rule="evenodd" d="M28.9998 22.1125C29.5245 22.1125 29.9498 22.5379 29.9498 23.0625V28.05H34.9373C35.462 28.05 35.8873 28.4754 35.8873 29C35.8873 29.5247 35.462 29.95 34.9373 29.95H28.9998C28.4751 29.95 28.0498 29.5247 28.0498 29V23.0625C28.0498 22.5379 28.4751 22.1125 28.9998 22.1125Z" fill="#17494D"/>
<path fill-rule="evenodd" clip-rule="evenodd" d="M25.2415 14.5125C25.1859 14.5125 25.132 14.5321 25.0893 14.5677C25.0466 14.6034 25.0178 14.6529 25.0079 14.7077L24.0731 14.5382L25.0079 14.7077L23.9972 20.2822C23.9036 20.7985 23.4093 21.1411 22.893 21.0475C22.3767 20.9539 22.0341 20.4596 22.1277 19.9433L23.1383 14.3688C23.2277 13.876 23.4871 13.4303 23.8715 13.1093C24.2559 12.7884 24.7408 12.6125 25.2415 12.6125H32.7584C33.2592 12.6125 33.744 12.7884 34.1284 13.1093C34.5128 13.4303 34.7723 13.876 34.8616 14.3688L35.8722 19.9433C35.9658 20.4596 35.6232 20.954 35.1069 21.0476C34.5907 21.1412 34.0963 20.7985 34.0027 20.2823L32.9921 14.7077L33.9268 14.5382L32.9921 14.7077C32.9822 14.6529 32.9533 14.6034 32.9106 14.5677C32.8679 14.5321 32.814 14.5125 32.7584 14.5125H25.2415Z" fill="#17494D"/>
<path fill-rule="evenodd" clip-rule="evenodd" d="M32.7585 44.1002C32.8141 44.1002 32.868 44.0807 32.9107 44.045C32.9534 44.0094 32.9822 43.9599 32.9921 43.9051L33.9269 44.0746L32.9921 43.9051L34.0028 38.3306C34.0964 37.8143 34.5907 37.4717 35.107 37.5653C35.6233 37.6589 35.9659 38.1532 35.8723 38.6695L34.8617 44.244C34.7723 44.7368 34.5129 45.1825 34.1285 45.5035C33.7441 45.8244 33.2592 46.0002 32.7585 46.0002H25.2416C24.7408 46.0002 24.256 45.8244 23.8716 45.5035C23.4872 45.1825 23.2277 44.7368 23.1384 44.244L22.1278 38.6695C22.0342 38.1532 22.3768 37.6588 22.8931 37.5652C23.4093 37.4716 23.9037 37.8143 23.9973 38.3305L25.0079 43.9051L24.0732 44.0746L25.0079 43.9051C25.0178 43.9599 25.0467 44.0094 25.0894 44.045C25.1321 44.0807 25.186 44.1002 25.2416 44.1002H32.7585Z" fill="#17494D"/>
<path fill-rule="evenodd" clip-rule="evenodd" d="M17.3623 29C17.3623 22.5728 22.5726 17.3625 28.9998 17.3625C35.427 17.3625 40.6373 22.5728 40.6373 29C40.6373 35.4273 35.427 40.6375 28.9998 40.6375C22.5726 40.6375 17.3623 35.4273 17.3623 29Z" fill="url(#paint0_linear_41_1444)"/>
<path fill-rule="evenodd" clip-rule="evenodd" d="M28.9998 19.2625C23.6219 19.2625 19.2623 23.6222 19.2623 29C19.2623 34.3779 23.6219 38.7375 28.9998 38.7375C34.3777 38.7375 38.7373 34.3779 38.7373 29C38.7373 23.6222 34.3777 19.2625 28.9998 19.2625ZM17.3623 29C17.3623 22.5728 22.5726 17.3625 28.9998 17.3625C35.427 17.3625 40.6373 22.5728 40.6373 29C40.6373 35.4273 35.427 40.6375 28.9998 40.6375C22.5726 40.6375 17.3623 35.4273 17.3623 29Z" fill="#17494D"/>
<path fill-rule="evenodd" clip-rule="evenodd" d="M28.9998 22.1125C29.5245 22.1125 29.9498 22.5379 29.9498 23.0625V28.05H34.9373C35.462 28.05 35.8873 28.4754 35.8873 29C35.8873 29.5247 35.462 29.95 34.9373 29.95H28.9998C28.4751 29.95 28.0498 29.5247 28.0498 29V23.0625C28.0498 22.5379 28.4751 22.1125 28.9998 22.1125Z" fill="#17494D"/>
</g>
<defs>
<filter id="filter0_d_41_1444" x="-4" y="0" width="66" height="66" filterUnits="userSpaceOnUse" color-interpolation-filters="sRGB">
<feFlood flood-opacity="0" result="BackgroundImageFix"/>
<feColorMatrix in="SourceAlpha" type="matrix" values="0 0 0 0 0 0 0 0 0 0 0 0 0 0 0 0 0 0 127 0" result="hardAlpha"/>
<feOffset dy="4"/>
<feGaussianBlur stdDeviation="2"/>
<feComposite in2="hardAlpha" operator="out"/>
<feColorMatrix type="matrix" values="0 0 0 0 0 0 0 0 0 0 0 0 0 0 0 0 0 0 0.25 0"/>
<feBlend mode="normal" in2="BackgroundImageFix" result="effect1_dropShadow_41_1444"/>
<feBlend mode="normal" in="SourceGraphic" in2="effect1_dropShadow_41_1444" result="shape"/>
</filter>
<linearGradient id="paint0_linear_41_1444" x1="28.3533" y1="14.7764" x2="31.6947" y2="40.3594" gradientUnits="userSpaceOnUse">
<stop stop-color="white" stop-opacity="0"/>
<stop offset="1" stop-color="#17494D" stop-opacity="0.57"/>
</linearGradient>
</defs>
</svg>
