<svg width="38" height="73" viewBox="0 0 38 73" fill="none" xmlns="http://www.w3.org/2000/svg">
<path d="M19 28.25C19 28.25 9.625 23 9.625 16.625C9.62519 15.4983 10.0156 14.4064 10.7299 13.5349C11.4442 12.6635 12.4382 12.0664 13.543 11.845C14.6478 11.6237 15.7951 11.7918 16.79 12.3208C17.7848 12.8498 18.5658 13.707 19 14.7467L19 14.7467C19.4342 13.707 20.2152 12.8498 21.21 12.3208C22.2049 11.7918 23.3522 11.6237 24.457 11.845C25.5618 12.0664 26.5558 12.6635 27.2701 13.5349C27.9844 14.4064 28.3748 15.4983 28.375 16.625C28.375 23 19 28.25 19 28.25Z" stroke="#13101E" stroke-width="2" stroke-linecap="round" stroke-linejoin="round"/>
<path d="M19 63.25C19 63.25 9.625 58 9.625 51.625C9.62519 50.4983 10.0156 49.4064 10.7299 48.5349C11.4442 47.6635 12.4382 47.0664 13.543 46.845C14.6478 46.6237 15.7951 46.7918 16.79 47.3208C17.7848 47.8498 18.5658 48.707 19 49.7467L19 49.7467C19.4342 48.707 20.2152 47.8498 21.21 47.3208C22.2049 46.7918 23.3522 46.6237 24.457 46.845C25.5618 47.0664 26.5558 47.6635 27.2701 48.5349C27.9844 49.4064 28.3748 50.4983 28.375 51.625C28.375 58 19 63.25 19 63.25Z" fill="#1B4B66"/>
<rect x="0.5" y="0.5" width="37" height="72" rx="4.5" stroke="#7B61FF" stroke-dasharray="10 5"/>
</svg>
